<svg xmlns:dc="http://purl.org/dc/elements/1.1/" xmlns:cc="http://creativecommons.org/ns#" xmlns:rdf="http://www.w3.org/1999/02/22-rdf-syntax-ns#" xmlns:svg="http://www.w3.org/2000/svg" xmlns="http://www.w3.org/2000/svg" viewBox="0 0 207.65334 34.84" height="34.84" width="207.65334" xml:space="preserve" id="svg2" version="1.1" xmlns:xlink="http://www.w3.org/1999/xlink">
 <metadata id="metadata8">
  <rdf:RDF>
   <cc:Work rdf:about="">
    <dc:format>
     image/svg+xml
    </dc:format>
    <dc:type rdf:resource="http://purl.org/dc/dcmitype/StillImage">
    </dc:type>
   </cc:Work>
  </rdf:RDF>
 </metadata>
 <defs id="defs6">
 </defs>
 <g transform="matrix(1.3333333,0,0,-1.3333333,0,34.84)" id="g10">
  <g transform="scale(0.1)" id="g12">
   <path id="path14" style="fill:#ee3135;fill-opacity:1;fill-rule:nonzero;stroke:none" d="m 115.328,261.141 h 0.512 l 28.738,0.191 21.449,-0.492 c 32.871,-0.86 66.391,-33.617 66.391,-74.731 0,-41.058 -36.898,-71.218 -69.688,-74.269 l -20.453,-1.899 -26.949,-0.16 v 4.942 c 92.16,2.277 112.699,77.816 70.652,117.769 -15.292,14.399 -38.992,25.18 -70.222,24.617 h -0.43 z m -48.9296,-0.301 20.9219,0.492 28.0077,-0.191 v -4.032 C 70.8984,256.051 25.2891,234.34 24.1484,187.07 c 0,-25.461 12.1602,-41.621 28.6407,-53.371 19.3515,-14.019 39.9882,-19.488 62.4299,-18.976 h 0.109 v -4.942 h -0.848 l -35.6714,0.379 -16.0898,1.27 C 29.9375,114.059 0,145.051 0,186.109 c 0,41.114 33.5078,73.782 66.3984,74.731">
   </path>
   <path id="path16" style="fill:#ee3135;fill-opacity:1;fill-rule:nonzero;stroke:none" d="m 126.402,254.539 0.27,-137.027 77.172,67.199">
   </path>
   <path id="path18" style="fill:#ee3135;fill-opacity:1;fill-rule:nonzero;stroke:none" d="m 105.445,253.93 -0.242,-135.899 -78.828,67.68">
   </path>
   <path id="path20" style="fill:#000000;fill-opacity:1;fill-rule:nonzero;stroke:none" d="m 404.121,239.281 c 8.289,-8.051 12.449,-18.621 12.449,-31.718 0,-9.231 -1.968,-17.282 -5.902,-24.141 -3.93,-6.871 -9.699,-12.199 -17.309,-16 -7.609,-3.813 -16.781,-5.711 -27.507,-5.711 h -13.661 v -43.039 h -24.332 v 129.5 c 4.993,0.867 10.821,1.617 17.5,2.25 6.672,0.617 12.821,0.93 18.43,0.93 18.59,0 32.031,-4.02 40.332,-12.071 m -19.09,-51 c 4.297,4.371 6.457,10.481 6.457,18.34 0,7.988 -2.09,14.098 -6.269,18.34 -4.18,4.238 -11.008,6.371 -20.489,6.371 -4.25,0 -8.429,-0.25 -12.539,-0.75 v -49.031 h 13.469 c 8.61,0.121 15.07,2.371 19.371,6.73">
   </path>
   <path id="path22" style="fill:#000000;fill-opacity:1;fill-rule:nonzero;stroke:none" d="m 491.797,144.121 h -48.098 l -7.672,-25.449 h -23.949 l 40.61,127.82 c 3.371,0.867 7.89,1.559 13.562,2.059 5.68,0.488 11.391,0.75 17.129,0.75 L 524.547,118.672 H 498.906 Z M 486,164.332 468.41,226.84 449.688,164.332">
   </path>
   <path id="path24" style="fill:#000000;fill-opacity:1;fill-rule:nonzero;stroke:none" d="m 623.738,249.012 c 4.239,0.558 8.481,0.84 12.731,0.84 V 118.66 h -21.711 l -46.039,74.492 c -3.742,6.36 -6.492,11.348 -8.242,14.969 0.25,-8.859 0.382,-22.961 0.382,-42.301 V 118.66 H 537.84 v 128.012 c 3.488,1 7.269,1.777 11.316,2.34 4.063,0.558 7.891,0.84 11.512,0.84 l 42.48,-69.622 c 3,-4.988 6.489,-11.48 10.481,-19.46 -0.742,14.972 -1.121,30.882 -1.121,47.722 v 38.18 c 3.25,1 6.988,1.777 11.23,2.34">
   </path>
   <path id="path26" style="fill:#000000;fill-opacity:1;fill-rule:nonzero;stroke:none" d="m 766.719,144.121 h -48.102 l -7.668,-25.449 h -23.961 l 40.621,127.82 c 3.36,0.867 7.879,1.559 13.559,2.059 5.68,0.488 11.391,0.75 17.129,0.75 l 41.172,-130.629 h -25.641 z m -5.801,20.211 -17.59,62.508 -18.719,-62.508">
   </path>
   <path id="path28" style="fill:#000000;fill-opacity:1;fill-rule:nonzero;stroke:none" d="m 821.457,117.449 c -6.18,1.313 -11.32,3.211 -15.437,5.711 0.25,4.238 0.558,7.922 0.937,11.039 0.371,3.121 0.992,6.301 1.871,9.543 4.488,-2.621 9.539,-4.609 15.16,-5.98 5.61,-1.383 11.219,-2.063 16.84,-2.063 7.61,0 13.469,1.434 17.59,4.301 4.121,2.871 6.18,6.992 6.18,12.352 0,3.75 -0.942,6.898 -2.809,9.449 -1.871,2.558 -4.211,4.648 -7.019,6.269 -2.813,1.621 -6.391,3.309 -10.762,5.059 l -11.039,4.301 c -18.34,7.23 -27.512,19.769 -27.512,37.621 0,11.219 3.77,20.078 11.32,26.57 7.551,6.488 19.063,9.731 34.532,9.731 12.597,0 23.699,-1.93 33.308,-5.801 -0.25,-3.621 -0.59,-6.86 -1.027,-9.731 -0.442,-2.871 -1.09,-6.179 -1.961,-9.918 -4.871,1.75 -9.859,3.09 -14.973,4.02 -5.117,0.937 -9.859,1.41 -14.226,1.41 -7.742,0 -13.383,-1.41 -16.942,-4.211 -3.55,-2.808 -5.332,-6.59 -5.332,-11.332 0,-5.109 1.621,-9.168 4.871,-12.16 3.243,-2.988 7.539,-5.488 12.911,-7.481 l 11.039,-4.117 c 20.339,-7.609 30.511,-20.281 30.511,-37.992 0,-7.488 -1.84,-14.129 -5.531,-19.93 -3.68,-5.808 -9.141,-10.359 -16.367,-13.668 -7.231,-3.3 -16.09,-4.949 -26.57,-4.949 -6.872,0 -13.383,0.649 -19.563,1.957">
   </path>
   <path id="path30" style="fill:#000000;fill-opacity:1;fill-rule:nonzero;stroke:none" d="m 908.199,246.672 c 3.11,0.867 6.949,1.617 11.508,2.25 4.551,0.617 8.82,0.93 12.82,0.93 V 118.66 h -24.328">
   </path>
   <path id="path32" style="fill:#000000;fill-opacity:1;fill-rule:nonzero;stroke:none" d="m 1025.53,144.121 h -48.092 l -7.68,-25.449 h -23.949 l 40.609,127.82 c 3.379,0.867 7.891,1.559 13.57,2.059 5.682,0.488 11.382,0.75 17.132,0.75 l 41.16,-130.629 h -25.63 z m -5.79,20.211 -17.59,62.508 -18.732,-62.508">
   </path>
   <path id="path34" style="fill:#000000;fill-opacity:1;fill-rule:nonzero;stroke:none" d="m 1193.87,174.992 c 3.56,-5.48 5.33,-11.91 5.33,-19.269 0,-7.481 -1.71,-14 -5.14,-19.551 -3.44,-5.563 -8.55,-9.859 -15.35,-12.93 -6.8,-3.043 -15.06,-4.57 -24.79,-4.57 H 1109 v 129.5 c 4.61,1 10.26,1.777 16.94,2.34 6.67,0.551 13.31,0.84 19.93,0.84 16.59,0 28.88,-3.082 36.87,-9.27 7.98,-6.16 11.97,-14.883 11.97,-26.109 0,-6.481 -1.49,-12.184 -4.49,-17.114 -2.99,-4.929 -7.11,-8.757 -12.35,-11.507 7.11,-2.743 12.44,-6.86 16,-12.36 m -61.1,55.778 v -36.118 h 16.28 c 6.86,0 12.19,1.457 16,4.387 3.81,2.93 5.71,7.703 5.71,14.32 0,5.864 -2,10.364 -5.99,13.473 -4,3.117 -10.11,4.688 -18.34,4.688 -5.12,0 -9.67,-0.25 -13.66,-0.75 m 36.02,-88.047 c 3.93,2.925 5.9,7.566 5.9,13.929 0,12.477 -7.93,18.707 -23.77,18.707 h -18.15 v -37.046 h 18.9 c 7.48,0 13.19,1.476 17.12,4.41">
   </path>
   <path id="path36" style="fill:#000000;fill-opacity:1;fill-rule:nonzero;stroke:none" d="m 1281.92,144.121 h -48.1 l -7.67,-25.449 h -23.95 l 40.61,127.82 c 3.37,0.867 7.89,1.559 13.57,2.059 5.67,0.488 11.38,0.75 17.12,0.75 l 41.17,-130.629 h -25.64 z m -5.8,20.211 -17.59,62.508 -18.72,-62.508">
   </path>
   <path id="path38" style="fill:#000000;fill-opacity:1;fill-rule:nonzero;stroke:none" d="m 1413.86,249.012 c 4.24,0.558 8.48,0.84 12.73,0.84 V 118.66 h -21.71 l -46.04,74.492 c -3.74,6.36 -6.49,11.348 -8.23,14.969 0.24,-8.859 0.37,-22.961 0.37,-42.301 v -47.16 h -23.02 v 128.012 c 3.49,1 7.27,1.777 11.32,2.34 4.05,0.558 7.89,0.84 11.51,0.84 l 42.48,-69.622 c 3,-4.988 6.49,-11.48 10.48,-19.46 -0.75,14.972 -1.12,30.882 -1.12,47.722 v 38.18 c 3.24,1 6.99,1.777 11.23,2.34">
   </path>
   <path id="path40" style="fill:#000000;fill-opacity:1;fill-rule:nonzero;stroke:none" d="m 1519.6,118.672 -42.3,63.07 v -63.07 h -24.33 V 246.68 c 3.11,0.859 6.95,1.609 11.52,2.242 4.54,0.617 8.82,0.937 12.81,0.937 v -64 l 40.98,62.313 h 27.32 l -43.41,-63.813 46.23,-65.687">
   </path>
   <path id="path42" style="fill:#000000;fill-opacity:1;fill-rule:nonzero;stroke:none" d="m 725.777,70.5 c -0.16,-1.8086 -0.359,-3.3086 -0.57,-4.5078 H 710.508 V 18.3828 h -10.66 v 47.6094 h -15.602 c 0.063,1.418 0.184,3.0195 0.371,4.7969 0.192,1.7734 0.403,3.2422 0.621,4.4023 h 40.871 c -0.062,-1.3203 -0.171,-2.8789 -0.332,-4.6914">
   </path>
   <path id="path44" style="fill:#000000;fill-opacity:1;fill-rule:nonzero;stroke:none" d="m 761.758,56.3906 c 2.551,-2.5703 3.82,-6.2109 3.82,-10.9179 V 18.3906 h -10.5 V 44.332 c 0,2.6172 -0.57,4.5391 -1.73,5.7383 -1.141,1.1992 -3.039,1.8086 -5.66,1.8086 -2.02,0 -4.11,-0.3594 -6.231,-1.0664 V 18.3906 h -10.519 v 56.7891 c 3.339,0.9922 6.839,1.4805 10.519,1.4805 V 58.9297 c 2.391,0.8828 4.941,1.3203 7.621,1.3203 5.91,0 10.141,-1.2891 12.68,-3.8594">
   </path>
   <path id="path46" style="fill:#000000;fill-opacity:1;fill-rule:nonzero;stroke:none" d="m 807.809,38.4102 c -0.09,-1.1993 -0.18,-2.2696 -0.289,-3.1993 h -25.372 c 0.5,-3.5 1.68,-5.9804 3.54,-7.4296 1.859,-1.4493 4.621,-2.1719 8.281,-2.1719 4.39,0 8.66,1.0117 12.808,3.0312 -0.269,-3.2812 -0.718,-6.1484 -1.308,-8.6093 -3.5,-1.75 -7.77,-2.6329 -12.801,-2.6329 -7.18,0 -12.48,1.9024 -15.93,5.7032 -3.441,3.8086 -5.16,9.1797 -5.16,16.1289 0,4.1601 0.68,7.8086 2.051,10.9609 1.359,3.1406 3.449,5.6211 6.269,7.418 2.821,1.8125 6.309,2.7109 10.469,2.7109 3.942,0 7.211,-0.789 9.852,-2.3789 2.609,-1.582 4.57,-3.75 5.828,-6.4805 1.25,-2.7382 1.871,-5.8789 1.871,-9.4414 0,-1.1992 -0.031,-2.4101 -0.109,-3.6093 m -23.231,11.4101 c -1.34,-1.5898 -2.18,-3.9375 -2.5,-7.0586 h 15.59 c -0.051,3.1211 -0.699,5.4688 -1.93,7.0586 -1.23,1.582 -3.101,2.3789 -5.621,2.3789 -2.347,0 -4.199,-0.7969 -5.539,-2.3789">
   </path>
   <path id="path48" style="fill:#000000;fill-opacity:1;fill-rule:nonzero;stroke:none" d="m 869.477,70.5 c -0.161,-1.8086 -0.36,-3.3086 -0.571,-4.5078 H 854.219 V 18.3828 h -10.672 v 47.6094 h -15.598 c 0.059,1.418 0.188,3.0195 0.367,4.7969 0.192,1.7734 0.403,3.2422 0.622,4.4023 h 40.871 c -0.063,-1.3203 -0.172,-2.8789 -0.332,-4.6914">
   </path>
   <path id="path50" style="fill:#000000;fill-opacity:1;fill-rule:nonzero;stroke:none" d="m 894.348,59.5898 c 0,-1.5273 -0.102,-3.0703 -0.289,-4.5976 -0.192,-1.5313 -0.422,-2.8711 -0.692,-4.0195 -1.969,0.3281 -4.347,0.5 -7.148,0.5 -1.86,0 -3.629,-0.1211 -5.332,-0.3321 v -32.75 h -10.5 v 39.6407 c 2.351,0.6015 4.851,1.1093 7.5,1.5195 2.66,0.4101 5.242,0.6094 7.761,0.6094 3.282,0 6.18,-0.1875 8.7,-0.5704">
   </path>
   <path id="path52" style="fill:#000000;fill-opacity:1;fill-rule:nonzero;stroke:none" d="M 933.578,59.3398 V 20.0313 c -2.68,-0.8204 -5.461,-1.4688 -8.328,-1.9297 -2.871,-0.4727 -5.621,-0.7032 -8.254,-0.7032 -6.508,0 -11.148,1.293 -13.906,3.8633 -2.762,2.5703 -4.141,6.2383 -4.141,11 v 27.0781 h 10.5 V 33.4102 c 0,-2.6875 0.59,-4.6289 1.77,-5.8282 1.168,-1.2109 3.148,-1.8125 5.949,-1.8125 1.75,0 3.719,0.1914 5.898,0.5821 v 32.9882">
   </path>
   <path id="path54" style="fill:#000000;fill-opacity:1;fill-rule:nonzero;stroke:none" d="m 942.277,75.1797 c 3.45,0.9805 6.95,1.4805 10.5,1.4805 V 18.3906 h -10.5">
   </path>
   <path id="path56" style="fill:#000000;fill-opacity:1;fill-rule:nonzero;stroke:none" d="M 996.777,59.3398 981.996,14.6094 C 980.469,9.96094 978.297,6.35938 975.508,3.82031 972.719,1.26953 969.117,0 964.688,0 c -1.43,0 -2.801,0.171875 -4.11,0.492188 0,3.179692 0.199,6.000002 0.57,8.457032 1.09,-0.21875 1.969,-0.32813 2.629,-0.32813 2.192,0 4.032,0.55079 5.539,1.64061 1.5,1.0977 2.75,3.0391 3.731,5.8281 l -16.16,43.25 h 10.832 l 9.929,-30.9375 8.86,30.9375">
   </path>
   <path id="path58" style="fill:#000000;fill-opacity:1;fill-rule:nonzero;stroke:none" d="m 1022.67,17.8516 c -2.71,0.5703 -4.97,1.4101 -6.77,2.5 0.11,1.8593 0.25,3.4804 0.41,4.8476 0.16,1.3594 0.44,2.7617 0.82,4.1797 1.97,-1.1367 4.19,-2.0195 6.65,-2.6172 2.46,-0.6133 4.92,-0.9101 7.38,-0.9101 3.34,0 5.91,0.6406 7.72,1.8906 1.8,1.2695 2.71,3.0703 2.71,5.4297 0,1.6406 -0.41,3.0195 -1.23,4.1406 -0.82,1.1094 -1.85,2.0391 -3.08,2.75 -1.23,0.6992 -2.81,1.4492 -4.72,2.207 l -4.84,1.8828 c -8.05,3.1797 -12.07,8.6797 -12.07,16.4961 0,4.9336 1.66,8.8125 4.97,11.6641 3.31,2.8398 8.36,4.2695 15.14,4.2695 5.53,0 10.4,-0.8593 14.61,-2.5507 -0.11,-1.5899 -0.26,-3.0118 -0.45,-4.2696 -0.19,-1.25 -0.48,-2.6992 -0.86,-4.3398 -2.14,0.7695 -4.33,1.3398 -6.57,1.75 -2.24,0.4297 -4.32,0.6172 -6.24,0.6172 -3.39,0 -5.87,-0.6172 -7.42,-1.8477 -1.56,-1.2305 -2.34,-2.8789 -2.34,-4.9492 0,-2.25 0.71,-4.0313 2.13,-5.3438 1.42,-1.3164 3.31,-2.4062 5.66,-3.289 l 4.85,-1.7969 c 8.91,-3.3398 13.37,-8.8906 13.37,-16.6602 0,-3.2929 -0.81,-6.2031 -2.42,-8.75 -1.61,-2.5429 -4.01,-4.5429 -7.18,-5.9804 -3.17,-1.461 -7.06,-2.1797 -11.65,-2.1797 -3.01,0 -5.87,0.2891 -8.58,0.8594">
   </path>
   <path id="path60" style="fill:#000000;fill-opacity:1;fill-rule:nonzero;stroke:none" d="m 1083.19,59.5898 c 0,-1.5273 -0.09,-3.0703 -0.29,-4.5976 -0.19,-1.5313 -0.42,-2.8711 -0.69,-4.0195 -1.97,0.3281 -4.34,0.5 -7.15,0.5 -1.85,0 -3.62,-0.1211 -5.33,-0.3321 v -32.75 h -10.51 v 39.6407 c 2.36,0.6015 4.86,1.1093 7.51,1.5195 2.66,0.4101 5.24,0.6094 7.76,0.6094 3.29,0 6.18,-0.1875 8.7,-0.5704">
   </path>
   <path id="path62" style="fill:#000000;fill-opacity:1;fill-rule:nonzero;stroke:none" d="m 1089.06,67.8828 c -1.18,1.1485 -1.76,2.6289 -1.76,4.4297 0,1.8086 0.58,3.2773 1.76,4.4297 1.18,1.1484 2.64,1.7305 4.39,1.7305 1.09,0 2.11,-0.2618 3.04,-0.7813 0.93,-0.5195 1.65,-1.25 2.17,-2.1797 0.52,-0.9297 0.78,-1.9922 0.78,-3.1992 0,-1.1523 -0.26,-2.1914 -0.78,-3.1211 -0.52,-0.9297 -1.24,-1.6719 -2.17,-2.2109 -0.93,-0.5508 -1.95,-0.8203 -3.04,-0.8203 -1.75,0 -3.21,0.5703 -4.39,1.7226 m -0.86,-8.543 h 10.51 V 18.3906 h -10.51">
   </path>
   <path id="path64" style="fill:#000000;fill-opacity:1;fill-rule:nonzero;stroke:none" d="m 1125.3,74.5195 c 1.37,0.3789 3.05,0.7227 5.05,1 1.98,0.2696 3.87,0.4102 5.62,0.4102 V 27.6719 h 20.34 c 0,-1.3203 -0.07,-2.8594 -0.23,-4.6524 -0.18,-1.7695 -0.39,-3.3203 -0.66,-4.6367 h -30.12">
   </path>
   <path id="path66" style="fill:#000000;fill-opacity:1;fill-rule:nonzero;stroke:none" d="M 1194.97,58.2695 V 18.3828 h -9.6 l -0.66,5.75 c -2.07,-4.4805 -5.5,-6.7344 -10.25,-6.7344 -4.81,0 -8.63,1.7344 -11.41,5.211 -2.79,3.4804 -4.18,8.7929 -4.18,15.9726 0,6.9375 1.64,12.3008 4.91,16.0899 3.3,3.7695 8.57,5.6601 15.84,5.6601 5.48,0 10.59,-0.6797 15.35,-2.0625 m -10.41,-29.707 v 22.8164 c -1.48,0.3203 -3.21,0.5 -5.17,0.5 -3.68,0 -6.24,-1.1094 -7.68,-3.3398 -1.45,-2.1993 -2.18,-5.4375 -2.18,-9.7071 0,-4.5429 0.68,-7.8398 2.05,-9.8906 1.38,-2.0625 3.39,-3.082 6.07,-3.082 2.79,0 5.09,0.9023 6.91,2.7031">
   </path>
   <path id="path68" style="fill:#000000;fill-opacity:1;fill-rule:nonzero;stroke:none" d="m 1234.21,56.4727 c 2.73,-2.5704 4.09,-6.2422 4.09,-11 V 18.3906 h -10.5 v 25.9297 c 0,2.7422 -0.59,4.711 -1.77,5.9102 -1.16,1.2109 -3.16,1.8086 -5.95,1.8086 -1.91,0 -3.87,-0.2188 -5.91,-0.6602 V 18.3906 h -10.5 v 39.3086 c 2.68,0.8203 5.47,1.461 8.33,1.9336 2.87,0.457 5.65,0.6992 8.33,0.6992 6.52,0 11.13,-1.2929 13.88,-3.8593">
   </path>
   <path id="path70" style="fill:#000000;fill-opacity:1;fill-rule:nonzero;stroke:none" d="M 1270.89,18.3906 1257.1,39.9805 V 18.3906 h -10.5 v 56.7891 c 3.44,0.9922 6.94,1.4805 10.5,1.4805 V 41.0391 l 12.97,18.3007 h 11.82 l -14.2,-18.539 15.59,-22.4102">
   </path>
   <path id="path72" style="fill:#000000;fill-opacity:1;fill-rule:nonzero;stroke:none" d="M 1319.39,58.2695 V 18.3828 h -9.6 l -0.65,5.75 c -2.09,-4.4805 -5.5,-6.7344 -10.27,-6.7344 -4.81,0 -8.62,1.7344 -11.41,5.211 -2.79,3.4804 -4.18,8.7929 -4.18,15.9726 0,6.9375 1.64,12.3008 4.92,16.0899 3.29,3.7695 8.57,5.6601 15.84,5.6601 5.47,0 10.6,-0.6797 15.35,-2.0625 m -10.42,-29.707 v 22.8164 c -1.48,0.3203 -3.2,0.5 -5.17,0.5 -3.66,0 -6.23,-1.1094 -7.68,-3.3398 -1.45,-2.1993 -2.17,-5.4375 -2.17,-9.7071 0,-4.5429 0.69,-7.8398 2.05,-9.8906 1.37,-2.0625 3.39,-3.082 6.07,-3.082 2.79,0 5.09,0.9023 6.9,2.7031">
   </path>
   <path id="path74" style="fill:#000000;fill-opacity:1;fill-rule:nonzero;stroke:none" d="m 1358.62,56.4727 c 2.74,-2.5704 4.1,-6.2422 4.1,-11 V 18.3906 h -10.5 v 25.9297 c 0,2.7422 -0.58,4.711 -1.77,5.9102 -1.17,1.2109 -3.16,1.8086 -5.95,1.8086 -1.91,0 -3.88,-0.2188 -5.91,-0.6602 V 18.3906 h -10.5 v 39.3086 c 2.68,0.8203 5.46,1.461 8.33,1.9336 2.87,0.457 5.65,0.6992 8.33,0.6992 6.51,0 11.14,-1.2929 13.87,-3.8593">
   </path>
   <path id="path76" style="fill:#000000;fill-opacity:1;fill-rule:nonzero;stroke:none" d="m 1426.13,43.0898 c 1.56,-2.4101 2.34,-5.2304 2.34,-8.4492 0,-3.289 -0.75,-6.1484 -2.26,-8.5781 -1.5,-2.4414 -3.75,-4.3203 -6.74,-5.6602 -2.98,-1.3515 -6.59,-2.0117 -10.86,-2.0117 h -19.71 v 56.7891 c 2.03,0.4414 4.5,0.7812 7.43,1.0312 2.93,0.2383 5.85,0.3711 8.75,0.3711 7.27,0 12.66,-1.3593 16.16,-4.0703 3.5,-2.7109 5.25,-6.5195 5.25,-11.4492 0,-2.8398 -0.66,-5.3516 -1.96,-7.5117 -1.31,-2.1602 -3.13,-3.8399 -5.42,-5.0391 3.11,-1.2109 5.45,-3.0117 7.02,-5.4219 m -26.8,24.461 V 51.7109 h 7.14 c 3,0 5.34,0.6407 7.02,1.9297 1.66,1.2813 2.5,3.3711 2.5,6.2696 0,2.582 -0.87,4.5507 -2.62,5.9101 -1.75,1.3711 -4.43,2.0625 -8.06,2.0625 -2.23,0 -4.23,-0.1133 -5.98,-0.332 m 15.8,-38.6211 c 1.73,1.293 2.59,3.332 2.59,6.1211 0,5.4687 -3.48,8.1992 -10.43,8.1992 h -7.96 V 27 h 8.29 c 3.28,0 5.78,0.6523 7.51,1.9297">
   </path>
   <path id="path78" style="fill:#000000;fill-opacity:1;fill-rule:nonzero;stroke:none" d="M 1469.09,58.2695 V 18.3828 h -9.6 l -0.66,5.75 c -2.08,-4.4805 -5.5,-6.7344 -10.26,-6.7344 -4.81,0 -8.61,1.7344 -11.41,5.211 -2.79,3.4804 -4.18,8.7929 -4.18,15.9726 0,6.9375 1.64,12.3008 4.92,16.0899 3.29,3.7695 8.57,5.6601 15.84,5.6601 5.47,0 10.59,-0.6797 15.35,-2.0625 m -10.42,-29.707 v 22.8164 c -1.48,0.3203 -3.2,0.5 -5.17,0.5 -3.67,0 -6.23,-1.1094 -7.68,-3.3398 -1.45,-2.1993 -2.17,-5.4375 -2.17,-9.7071 0,-4.5429 0.68,-7.8398 2.05,-9.8906 1.37,-2.0625 3.39,-3.082 6.07,-3.082 2.79,0 5.09,0.9023 6.9,2.7031">
   </path>
   <path id="path80" style="fill:#000000;fill-opacity:1;fill-rule:nonzero;stroke:none" d="m 1508.32,56.4727 c 2.74,-2.5704 4.1,-6.2422 4.1,-11 V 18.3906 h -10.5 v 25.9297 c 0,2.7422 -0.59,4.711 -1.77,5.9102 -1.17,1.2109 -3.16,1.8086 -5.95,1.8086 -1.91,0 -3.88,-0.2188 -5.91,-0.6602 V 18.3906 h -10.5 v 39.3086 c 2.68,0.8203 5.46,1.461 8.33,1.9336 2.87,0.457 5.65,0.6992 8.33,0.6992 6.51,0 11.13,-1.2929 13.87,-3.8593">
   </path>
   <path id="path82" style="fill:#000000;fill-opacity:1;fill-rule:nonzero;stroke:none" d="m 1545.01,18.3906 -13.79,21.5899 V 18.3906 h -10.5 v 56.7891 c 3.43,0.9922 6.93,1.4805 10.5,1.4805 V 41.0391 l 12.97,18.3007 h 11.82 l -14.2,-18.539 15.59,-22.4102">
   </path>
  </g>
 </g>
</svg>